<?xml version="1.0" encoding="utf-8" ?><svg xmlns="http://www.w3.org/2000/svg" xmlns:xlink="http://www.w3.org/1999/xlink" width="512" height="512" viewBox="0 0 512 512"><path fill="#255680" transform="scale(0.5 0.5)" d="M483.018 55.2478L761.648 55.3422L838.689 55.2104C878.177 55.1111 910.277 51.6013 941.165 81.7758C954.906 95.0594 964.182 112.283 967.71 131.067C970.356 145.477 969.55 170.762 969.539 186.441L969.483 271.412L969.349 482.942L969.375 607.773C969.99 668.502 968.968 730.47 968.894 791.328L969.056 845.58C969.115 861.343 969.943 878.603 966.749 894.052C959.402 929.625 929.786 959.914 893.995 966.971C878.801 969.966 860.187 969.057 844.447 969.02L785.128 968.964L542.135 968.865L261.726 969.021L186.655 969.017C170.531 969.031 147.654 969.908 132.316 967.095C113.944 963.56 97.0302 954.664 83.708 941.528C65.6232 923.795 54.5608 900.233 54.3812 874.759L54.0646 377.784L53.9704 215.443L53.9147 171.704C53.8599 161.043 53.4613 147.297 54.8716 136.914C57.5182 117.431 67.6222 97.529 81.503 83.6727C93.6577 71.5394 112.07 60.9438 129.063 57.7479C144.777 54.7927 163.992 55.4878 180.193 55.5344L244.762 55.7111L483.018 55.2478Z"/><path fill="#FCFCFB" transform="scale(0.5 0.5)" d="M861.393 60.2448L861.966 60.237C891.233 59.9592 916.066 64.6089 937.499 86.298C958.858 107.914 964.216 129.972 964.324 159.031L963.95 666.539L963.561 809.795L963.559 851.393C963.61 886.138 963.255 910.809 937.192 937.397C908.03 967.144 875.32 964.118 837.501 963.592C822.336 963.488 807.171 963.481 792.006 963.571L576.875 963.68L475.001 963.734L474.685 60.4983L740.327 60.5512C780.683 60.6821 821.039 60.58 861.393 60.2448Z"/><path fill="#1E2248" transform="scale(0.5 0.5)" d="M698.254 440.441C707.794 441.327 722.659 445.668 732.482 447.807C752.074 451.963 771.694 455.98 791.343 459.859L885.965 478.944C901.509 482.05 917.118 484.848 932.607 488.194C939.798 489.748 941.259 494.809 940.031 501.396C938.696 508.557 936.991 515.597 935.402 522.702C933.411 531.777 931.535 540.877 929.774 550L905.034 674.575L886.393 766.954L880.952 792.764C880.025 797.119 879.119 801.726 877.984 806.005C876.856 810.254 869.45 815.398 865.171 815.274C856.313 815.017 846.925 812.657 838.189 810.916L799.127 803.131C764.104 796.522 727.82 788.547 692.805 781.377L560.318 754.516C554.56 753.313 549.528 752.575 546.624 746.948C545.245 744.275 545.013 741.114 545.541 738.216C547.746 726.11 550.425 714.069 553.003 702.038L567.589 633.786C573.347 606.112 578.867 578.39 584.148 550.621C586.896 536.516 589.615 521.017 592.817 507.094C608.95 497.779 625.039 486.946 640.741 476.781C659.778 464.457 678.95 452.343 698.254 440.441Z"/><path fill="#FCFCFB" transform="scale(0.5 0.5)" d="M705.328 456.362C710.9 456.899 721.217 459.158 726.827 460.323L768.469 469.275L869.422 489.889C888.074 493.692 907.128 497.963 925.82 501.276C924.038 513.434 920.296 529.877 917.871 542.175L901.145 625.334L880.051 726.563C874.905 751.542 870.167 776.748 864.362 801.563C838.645 795.478 808.503 790.172 782.356 784.885L656.421 759.196C624.062 753.001 591.76 746.509 559.52 739.722C561.612 728.958 564.454 717.975 566.816 707.212C571.058 687.595 575.193 667.954 579.22 648.291C587.7 607.067 595.181 565.188 603.775 524.249C607.413 524.653 611.067 525.538 614.672 526.196C639.491 530.73 664.223 536.477 689.162 540.253C692.869 514.332 699.832 482.121 705.328 456.362Z"/><path fill="#1E2248" transform="scale(0.5 0.5)" d="M679.517 549.652C688.252 550.51 699.342 553.064 708.077 554.819L747.018 562.423L792.864 571.237C800.395 572.708 808.459 574.07 815.75 576.44C818.691 577.396 821.529 581.195 822.476 584.026C823.534 587.188 823.274 590.513 822.88 593.776C821.552 603.534 819.855 613.434 818.199 623.146L808.314 679.019C805.644 694.048 802.761 715.146 798.418 729.911C797.181 734.117 790.476 736.408 786.391 737.642C776.136 735.322 763.417 733.315 752.946 731.367L690.911 719.725C678.257 717.344 661.135 715.692 649.531 710.577C639.039 705.952 641.531 692.101 643.183 683.285C644.176 677.982 645.064 671.863 645.961 666.173L654.165 614.398C656.292 601.317 657.917 588.144 659.868 575.031C660.751 569.095 661.532 562.235 664.937 557.115C668.308 552.046 673.898 550.642 679.517 549.652Z"/><path fill="#FCFCFB" transform="scale(0.5 0.5)" d="M715.572 566.761C720.171 567.488 727.724 569.539 732.146 570.798C727.667 582.49 722.073 594.388 717.317 606.134C724.269 607.896 730.411 609.102 737.446 610.351L752.557 574.238C757.723 574.793 764.044 576.446 769.025 577.906C764.382 589.961 758.789 601.57 754.305 613.695C760.395 615.566 769.102 617.064 775.381 618.244C780.425 606.331 785.846 594.278 791.056 582.412C795.912 583.654 801.997 584.758 807.013 585.899C801.884 596.94 796.635 610.206 791.832 621.557C796.195 622.54 800.546 623.579 804.883 624.673L802.066 640.239C797.603 639.132 790.225 637.995 785.529 637.141L772 668.611C777.891 670.402 784.57 671.845 790.615 673.284C790.11 678.441 789.518 683.589 788.839 688.726C781.682 687.871 772.737 685.686 765.484 684.175C761.961 694.811 754.807 709.611 749.963 719.832L739.601 717.563C737.505 717.012 735.023 716.52 732.878 716.037C738.392 704.456 743.569 692.718 748.402 680.837C742.131 678.909 734.463 677.405 728.002 676.017C723.375 687.693 717.035 701.159 711.918 712.76C706.171 711.675 700.448 710.461 694.754 709.121C701.032 697.197 705.677 685.598 710.87 673.173C704.071 671.526 696.93 670.215 690.046 668.862C685.573 680.286 679.346 693.625 674.484 705.291C668.909 704.402 663.38 703.08 657.869 701.846C662.472 689.65 667.993 678.005 672.672 665.843L657.656 662.488C658.992 657.347 660.487 652.101 661.893 646.967L679.502 650.519C684.117 640.011 688.53 628.983 692.932 618.348C685.073 616.25 677.713 614.34 669.674 613.049C671.337 607.958 673.069 602.89 674.871 597.847L700.044 603.404C704.283 591.789 710.699 578.461 715.572 566.761Z"/><path fill="#1E2248" transform="scale(0.5 0.5)" d="M747.986 629.242C754.873 630.645 762.15 632.082 768.931 633.828C764.202 644.2 759.722 654.685 755.496 665.273L733.961 660.87C736.865 651.843 743.797 637.686 747.986 629.242Z"/><path fill="#1E2248" transform="scale(0.5 0.5)" d="M710.144 622.363C715.944 622.887 724.881 625.122 730.675 626.451C726.785 636.473 721.32 646.249 717.275 656.962C710.519 655.915 703.654 654.519 696.94 653.194C700.465 643.297 705.791 632.055 710.144 622.363Z"/><path fill="#FCFCFB" transform="scale(0.5 0.5)" d="M692.518 463.585C693.562 466.485 682.075 522.738 680.71 529.206C662.891 524.924 642.521 521.393 624.354 517.881C619.745 516.954 615.124 516.082 610.494 515.266C613.49 513.141 616.848 510.894 619.995 509.012C644.421 494.406 667.885 477.79 692.518 463.585Z"/><path fill="#1E2248" transform="scale(0.5 0.5)" d="M643.819 191.931C645.119 193.841 644.431 244.015 644.407 250.385C638.784 253.961 633.134 257.494 627.458 260.985C649.633 259.815 675.035 260.503 697.391 260.501L815.245 260.315L815.055 432.23C798.701 431.825 782.338 431.888 765.986 432.421L765.949 311.047C750.062 310.552 734.166 310.394 718.272 310.571C694.251 310.792 670.234 311.088 646.213 310.854C637.565 310.77 628.918 310.623 620.273 310.928C628.069 316.827 636.49 322.295 644.492 328.043C644.851 346.83 644.142 365.858 644.867 384.569C636.702 379.489 628.151 373.08 620.081 367.518C600.328 354.009 580.764 340.225 561.395 326.17C542.658 312.75 523.933 301.049 505.879 286.615C524.606 272.546 545.14 259.887 564.322 246.466C590.878 227.885 616.562 209.47 643.819 191.931Z"/><path fill="#FCFCFB" transform="scale(0.5 0.5)" d="M146.671 229.032C157.265 225.694 171.286 222.853 182.354 220.327L251.001 204.893L309.53 191.26C321.061 188.529 332.576 185.24 344.33 183.706C347.499 183.366 350.739 183.787 353.732 184.882C363.502 188.457 370.475 194.605 373.409 204.773C378.498 222.414 381.341 240.47 385.221 258.392L408.236 363.149L431.79 469.166L439.143 502.081C440.586 508.519 442.377 515.252 443.317 521.769C445.338 535.777 438.139 548.916 423.957 552.519C412.486 555.434 400.981 557.841 389.49 560.657C352.141 569.552 314.729 578.188 277.26 586.564L214.707 601.011C203.311 603.658 189.649 607.429 178.221 608.66C163.321 610.264 149.539 598.144 146.091 584.249C141.346 565.124 137.497 546.294 133.092 527.276L104.763 405.379C100.926 389.231 96.9881 373.107 92.949 357.009C91.8089 352.349 87.5693 335.271 87.4954 331.294L86.4807 327.346C85.9405 326.533 83.6075 319.74 83.1147 318.362C90.2403 307.656 138.89 231.658 142.802 229.523C143.971 228.845 145.265 229.032 146.671 229.032Z"/><path fill="#FCFCFB" transform="scale(0.5 0.5)" d="M83.1147 318.362C90.2403 307.656 138.89 231.658 142.802 229.523C149.748 256.343 154.045 283.938 160.705 310.647L116.935 320.763C107.078 323.061 96.4069 325.75 86.4807 327.346C85.9405 326.533 83.6075 319.74 83.1147 318.362Z"/><path fill="#1E2248" transform="scale(0.5 0.5)" d="M134.176 256.257C135.656 256.566 135.991 256.47 137.033 257.547C137.139 261.371 106.56 305.759 101.911 312.204C100.559 312.36 100.092 311.642 99.4878 310.739C99.4292 309.823 99.5654 309.111 100.073 308.338C111.453 291.021 122.321 273.245 134.176 256.257Z"/><path fill="#1E2248" transform="scale(0.5 0.5)" d="M142.802 229.523C143.971 228.845 145.265 229.032 146.671 229.032C153.08 255.733 158.447 288.186 165.847 313.952L111.686 326.084C104.069 327.765 94.9297 329.445 87.4954 331.294L86.4807 327.346C96.4069 325.75 107.078 323.061 116.935 320.763L160.705 310.647C154.045 283.938 149.748 256.343 142.802 229.523Z"/><path fill="#1E2248" transform="scale(0.5 0.5)" d="M386.38 466.684C388.131 469.037 390.065 478.76 390.839 482.104C319.699 499.311 248.41 515.893 176.98 531.85C175.108 530.413 173.216 519.164 172.626 516.304C186.843 513.292 201.317 509.62 215.561 506.398L386.38 466.684Z"/><path fill="#1E2248" transform="scale(0.5 0.5)" d="M376.313 428.574L377.704 428.47C379.772 430.26 381.507 440.436 382.228 443.765C376.329 445.599 365.528 447.772 359.284 449.227L313.178 459.97L169.731 493.417C168.635 493.574 169.22 493.581 167.98 493.305C166.489 490.441 164.654 481.947 163.763 478.296C191.263 470.849 221.644 464.747 249.535 458.383L376.313 428.574Z"/><path fill="#1E2248" transform="scale(0.5 0.5)" d="M368.308 390.577L369.368 390.691C371.471 393.179 373.05 402.506 373.821 406.103C366.986 407.952 358.906 409.398 351.833 411.006L295.049 423.728L160.687 454.909L159.726 454.757C157.88 452.511 155.943 443.208 155.13 439.887C177.561 435.718 205.469 428.419 228.078 423.175L368.308 390.577Z"/><path fill="#1E2248" transform="scale(0.5 0.5)" d="M360.567 351.639C362.548 352.974 364.499 364.297 365.081 367.145C359.037 368.972 350.243 370.649 343.725 372.223C326.71 376.374 309.662 380.392 292.584 384.276L152.119 416.651L151.337 416.349C149.364 413.936 147.898 405.399 147.157 401.925C154.04 399.537 165.789 397.307 173.307 395.64C187.7 392.463 202.076 389.207 216.434 385.871C264.548 374.757 312.593 363.346 360.567 351.639Z"/><path fill="#1E2248" transform="scale(0.5 0.5)" d="M283.953 277.156C285.368 276.898 285.338 276.817 286.715 277.128C288.498 280.436 294.627 310.703 295.76 316.114L288.781 317.926C286.879 307.917 285.007 300.318 282.195 290.51C281.892 298.302 282.641 315.608 277.967 320.886C277.443 321.095 276.971 321.45 276.402 321.278C272.046 319.958 262.201 296.33 259.46 291.09C259.977 293.76 260.661 296.586 261.262 299.255C262.823 306.678 264.503 314.653 266.58 321.91L259.943 324.99C256.156 314.038 253.129 297.062 250.839 285.438C254.683 283.981 258.032 283.291 262.013 282.379C266.77 290.702 271.395 299.851 275.815 308.4C275.547 298.8 275.957 288.738 276.238 279.107C279.423 278.036 280.663 277.732 283.953 277.156Z"/><path fill="#1E2248" transform="scale(0.5 0.5)" d="M208.589 294.052L209.796 294.236C212.022 297.615 217.844 327.186 219.163 333.558L211.88 335.239L207.389 318.496C202.244 319.977 196.997 321.077 191.689 321.786C192.8 327.107 193.731 333.327 194.73 338.761L187.937 340.825C184.107 327.431 181.05 313.827 178.78 300.082L185.716 298.304C186.919 304.211 188.479 310.315 189.888 316.195C195.822 314.538 200.607 313.318 206.634 312.078C205.245 307.939 201.533 299.847 204.24 295.766C205.048 294.547 207.174 294.321 208.589 294.052Z"/><path fill="#1E2248" transform="scale(0.5 0.5)" d="M242.822 286.601C244.905 286.141 246.197 286.647 247.479 288.246C247.542 293.888 240.261 294.492 236.008 295.295C238.157 305.745 241.207 317.053 243.882 327.441C241.362 328.316 238.532 329.155 235.972 329.972L234.079 321.701C232.331 313.791 230.268 304.732 229.263 296.749L216.15 298.785C215.976 296.68 215.672 294.401 215.434 292.287C224.575 290.447 233.704 288.552 242.822 286.601Z"/><path fill="#1E2248" transform="scale(0.5 0.5)" d="M300.649 273.679C302.952 275.072 308.179 302.419 309.116 306.887C314.438 305.742 325.11 301.057 329.017 305.212C329.364 307.326 329.563 306.411 328.775 308.105C327.088 309.268 326.032 309.263 323.949 309.636C317.654 310.714 309.249 312.885 302.86 314.332C299.901 301.233 297.356 288.015 294.318 274.961L300.649 273.679Z"/><path fill="#FCFCFB" transform="scale(0.5 0.5)" d="M283.508 655.332C290.878 659.28 303.622 669.89 311.355 675.194C346.875 699.554 379.362 725.65 416.059 748.488C400.29 759.523 384.295 770.261 368.647 781.462C340.262 801.781 312.285 823.541 283.878 843.721C282.873 830.904 283.512 810.536 283.568 797.072C289.673 791.44 302.401 782.761 309.423 777.934C313.63 775.006 317.561 772.334 321.518 769.049L136.492 769.413L136.488 729.492L321.912 729.581C308.45 720.099 297.683 710.804 283.385 701.881C283.063 686.366 283.104 670.845 283.508 655.332Z"/><defs><linearGradient id="gradient_0" gradientUnits="userSpaceOnUse" x1="72.124008" y1="80.624626" x2="74.125992" y2="78.624626"><stop offset="0" stop-color="black" stop-opacity="0"/><stop offset="1" stop-color="#090409" stop-opacity="0.047058824"/></linearGradient></defs><path fill="url(#gradient_0)" transform="scale(0.5 0.5)" d="M71.1572 78.4994C72.6766 79.3855 73.5593 79.5611 75.2199 80.0486L75.2163 80.6839C74.1862 80.8542 74.021 80.8118 72.9673 80.8079C71.2341 79.7426 71.8338 80.4727 71.1572 78.4994Z"/></svg>